<svg width="212" height="58" viewBox="0 0 212 58" fill="none" xmlns="http://www.w3.org/2000/svg">
<path d="M2.71614 57H3.21614V56.5V23.7989H47.5C49.8474 23.7989 51.8918 23.3744 53.6155 22.504C55.5829 21.5129 57.1372 20.0858 58.2687 18.2282C59.431 16.3709 60.013 14.3334 60.013 12.1264C60.013 9.83387 59.4496 7.79175 58.3104 6.01724C57.1778 4.25311 55.6398 2.89045 53.7071 1.93217C51.8091 0.975794 49.7374 0.5 47.5 0.5H1H0.5V1V56.5V57H1H2.71614ZM52.1584 20.2252L52.1583 20.2252L52.1525 20.228C50.9743 20.7977 49.4322 21.0977 47.5 21.0977H3.21614V3.20115H47.5C49.3999 3.20115 50.927 3.5007 52.1061 4.07083L52.106 4.07092L52.1152 4.07512C53.6991 4.80201 54.9551 5.88817 55.8926 7.34017C56.8294 8.79122 57.2968 10.3827 57.2968 12.1264C57.2968 13.9025 56.8285 15.509 55.8926 16.9587C54.9536 18.413 53.7113 19.4991 52.1584 20.2252Z" fill="black" stroke="black"/>
<path d="M124.716 57H125.216V56.5V23.7989H169.5C171.847 23.7989 173.892 23.3744 175.615 22.504C177.583 21.5129 179.137 20.0858 180.269 18.2282C181.431 16.3709 182.013 14.3334 182.013 12.1264C182.013 9.83387 181.45 7.79175 180.31 6.01724C179.178 4.25311 177.64 2.89045 175.707 1.93217C173.809 0.975794 171.737 0.5 169.5 0.5H123H122.5V1V56.5V57H123H124.716ZM174.158 20.2252L174.158 20.2252L174.152 20.228C172.974 20.7977 171.432 21.0977 169.5 21.0977H125.216V3.20115H169.5C171.4 3.20115 172.927 3.5007 174.106 4.07083L174.106 4.07092L174.115 4.07512C175.699 4.80201 176.955 5.88817 177.893 7.34017C178.829 8.79122 179.297 10.3827 179.297 12.1264C179.297 13.9025 178.828 15.509 177.893 16.9587C176.954 18.413 175.711 19.4991 174.158 20.2252Z" fill="black" stroke="black"/>
<path d="M27.2922 30.9586L27.2903 30.9578C26.5892 30.6402 25.8147 30.4183 24.9704 30.2881C24.1489 30.1329 23.1712 30.0579 22.0434 30.0579H12H11.5V30.5579V56.4422V56.9422H12H13.4023H13.9023V56.4422V48.0537H22.9151H22.9228L22.9304 48.0535L23.8788 48.0244L30.2041 56.7359L30.3539 56.9422H30.6087H32.2763H33.2606L32.6801 56.1473L26.3867 47.5294C28.0514 46.9547 29.4416 45.9606 30.5471 44.5527C31.8281 42.9287 32.4731 41.0846 32.4731 39.0372C32.4731 37.2828 32.0048 35.6765 31.0679 34.2307C30.1553 32.7832 28.8923 31.6914 27.2922 30.9586ZM28.9768 35.4049L28.9768 35.4049L28.981 35.4112C29.7074 36.4919 30.0708 37.696 30.0708 39.0372C30.0708 40.2367 29.7665 41.3375 29.1571 42.3495C28.5441 43.3675 27.7211 44.1755 26.6817 44.7782C25.6479 45.3776 24.5219 45.6777 23.2941 45.6777H13.9023V32.4339H22.0434C23.8093 32.4339 25.1239 32.6305 26.0226 32.9915C27.2991 33.5257 28.2777 34.3301 28.9768 35.4049ZM55.1193 56.0221L55.1194 56.0221L55.1242 56.0193C56.8643 55.0103 58.2404 53.6482 59.2447 51.9373C60.2767 50.2228 60.793 48.3491 60.793 46.3264V40.6736C60.793 38.6509 60.2767 36.7773 59.2447 35.0627C58.2402 33.3515 56.8634 32.001 55.1218 31.0165C53.3769 30.0053 51.4717 29.5 49.4158 29.5C47.36 29.5 45.4548 30.0052 43.7099 31.0164C41.9686 32.0008 40.58 33.3506 39.5505 35.0602L39.5505 35.0602L39.5476 35.0652C38.5415 36.7798 38.0386 38.6525 38.0386 40.6736V46.3264C38.0386 48.3475 38.5415 50.2202 39.5476 51.9349L39.5475 51.9349L39.5505 51.9398C40.5798 53.649 41.9676 55.0105 43.7075 56.0193L43.7075 56.0194L43.7123 56.0221C45.4572 57.0079 47.3615 57.5 49.4158 57.5C51.4702 57.5 53.3745 57.0079 55.1193 56.0221ZM57.1729 50.756L57.1715 50.7583C56.3832 52.0945 55.2974 53.1615 53.905 53.9627C52.5433 54.736 51.0502 55.124 49.4158 55.124C47.7827 55.124 46.2765 54.7365 44.8886 53.9626C43.5229 53.1623 42.436 52.0953 41.6216 50.7571C40.8343 49.3977 40.4409 47.9239 40.4409 46.3264V40.6736C40.4409 39.0749 40.8349 37.6138 41.6216 36.28C42.4367 34.9159 43.5237 33.85 44.8875 33.0752L44.8898 33.0739C46.2781 32.2753 47.7837 31.876 49.4158 31.876C51.0479 31.876 52.5395 32.2753 53.9007 33.072L53.9007 33.0721L53.9096 33.0771C55.2973 33.8519 56.3814 34.9161 57.1696 36.2756L57.1695 36.2756L57.1749 36.2845C57.9854 37.6179 58.3908 39.0773 58.3908 40.6736V46.3264C58.3908 47.9227 57.9854 49.396 57.1729 50.756ZM84.1494 55.9904L84.1536 55.9881C85.3199 55.3494 86.2556 54.4431 86.9568 53.2786C87.6612 52.1088 88.0139 50.8294 88.0139 49.4504C88.0139 47.9014 87.535 46.4835 86.5887 45.21C85.8609 44.2306 84.9824 43.4812 83.9558 42.9695C84.7605 42.4093 85.4203 41.72 85.9292 40.9013C86.635 39.7818 86.9906 38.562 86.9906 37.2521C86.9906 35.8746 86.6386 34.6172 85.9304 33.4931C85.2457 32.366 84.263 31.4873 83.0008 30.8548C81.9192 30.3106 80.5059 30.0579 78.797 30.0579H68.2608H67.7608V30.5579V56.4422V56.9422H68.2608H79.3275C80.481 56.9422 81.4308 56.8672 82.1628 56.7075C82.8854 56.55 83.5487 56.3119 84.1494 55.9904ZM81.9498 41.5263L81.9441 41.5292C81.257 41.8772 80.2954 42.0702 79.0243 42.0702H70.1252V32.4339H78.3422C80.0024 32.4339 81.1019 32.5852 81.7101 32.8407C82.5545 33.1992 83.2519 33.7692 83.8067 34.5633L83.8107 34.5688C84.3499 35.3184 84.6262 36.2055 84.6262 37.2521C84.6262 38.1764 84.3865 39.0135 83.9071 39.775C83.4268 40.5381 82.7776 41.1202 81.9498 41.5263ZM84.8554 46.7428L84.8588 46.748C85.3845 47.5554 85.6495 48.4639 85.6495 49.4876C85.6495 50.4607 85.3974 51.3621 84.8897 52.201C84.3827 53.0141 83.7075 53.6314 82.857 54.0605C82.5041 54.2333 82.0714 54.3696 81.5516 54.4623C81.0379 54.554 80.3135 54.6033 79.3654 54.6033H70.1252V44.4091H79.8581C81.1102 44.4091 82.053 44.579 82.7198 44.8844L82.7217 44.8852C83.6179 45.2911 84.3262 45.9074 84.8554 46.7428ZM96.4292 30.0579H95.9292V30.5579V56.4422V56.9422H96.4292H115H115.5V56.4422V55.0661V54.5661H115H98.3315V44.2975H112.764H113.264V43.7975V42.4215V41.9215H112.764H98.3315V32.4339H115H115.5V31.9339V30.5579V30.0579H115H96.4292Z" fill="black" stroke="black"/>
<path d="M149.656 56.0247L149.656 56.0247L149.661 56.0219C151.409 55.0146 152.791 53.6545 153.8 51.9458C154.837 50.2333 155.356 48.3617 155.356 46.3411V40.696C155.356 38.6754 154.837 36.8038 153.8 35.0913C152.791 33.3823 151.408 32.0338 149.659 31.051C147.906 30.0414 145.993 29.5371 143.928 29.5371C141.864 29.5371 139.95 30.0414 138.198 31.051C136.449 32.0337 135.054 33.3814 134.019 35.0889L134.019 35.0889L134.016 35.0938C133.005 36.8064 132.5 38.677 132.5 40.696V46.3411C132.5 48.3601 133.005 50.2308 134.016 51.9433L134.016 51.9433L134.019 51.9482C135.054 53.6554 136.448 55.0147 138.195 56.0219L138.195 56.0219L138.2 56.0247C139.953 57.0088 141.865 57.5 143.928 57.5C145.991 57.5 147.904 57.0088 149.656 56.0247ZM151.724 50.7631L151.723 50.7654C150.931 52.0995 149.84 53.1652 148.441 53.9656C147.072 54.7381 145.571 55.1259 143.928 55.1259C142.286 55.1259 140.772 54.7387 139.377 53.9656C138.005 53.1661 136.913 52.1004 136.095 50.7642C135.304 49.4069 134.909 47.9357 134.909 46.3411V40.696C134.909 39.1002 135.305 37.6417 136.095 36.31C136.914 34.948 138.006 33.8834 139.376 33.1094L139.376 33.1094L139.379 33.1081C140.774 32.3103 142.287 31.9113 143.928 31.9113C145.569 31.9113 147.068 32.3102 148.436 33.1062L148.436 33.1063L148.445 33.1112C149.84 33.8852 150.929 34.9482 151.721 36.3056L151.721 36.3056L151.726 36.3145C152.54 37.6458 152.947 39.1027 152.947 40.696V46.3411C152.947 47.9345 152.54 49.4052 151.724 50.7631ZM177.469 56.6509C178.991 56.078 180.224 55.2108 181.149 54.0429C182.117 52.8289 182.59 51.3534 182.59 49.6465C182.59 47.9566 182.163 46.572 181.244 45.5616C180.397 44.6034 179.345 43.9247 178.098 43.5269C176.925 43.1206 175.29 42.7077 173.204 42.2859C171.155 41.8664 169.577 41.4747 168.461 41.1118C167.378 40.7599 166.524 40.2636 165.879 39.6355C165.279 39.0278 164.961 38.2105 164.961 37.1307C164.961 35.9193 165.297 34.9512 165.943 34.1892C166.643 33.3947 167.544 32.7975 168.663 32.4027C169.799 32.0022 171.024 31.7999 172.343 31.7999C173.823 31.7999 175.156 32.0952 176.35 32.6777L176.35 32.6778L176.357 32.6812C177.547 33.2384 178.477 34.0331 179.16 35.0666C179.837 36.0913 180.182 37.281 180.182 38.6534V39.1534H180.682H182.09H182.59V38.6534C182.59 36.8794 182.134 35.2846 181.214 33.8848C180.299 32.4935 179.048 31.4203 177.475 30.6655C175.929 29.8863 174.228 29.5 172.381 29.5C170.475 29.5 168.77 29.8056 167.276 30.43L167.273 30.4313C165.804 31.0564 164.636 31.9516 163.789 33.124L163.789 33.124L163.784 33.1303C162.959 34.3105 162.552 35.6751 162.552 37.205C162.552 38.6877 162.961 39.9487 163.814 40.9465L163.819 40.9523L163.824 40.9579C164.674 41.8939 165.811 42.6263 167.212 43.1679L167.212 43.168L167.223 43.1718C168.626 43.6788 170.418 44.1427 172.589 44.5663C174.589 44.9614 176.063 45.3158 177.024 45.6282L177.031 45.6305L177.038 45.6326C177.978 45.9076 178.736 46.3601 179.329 46.983C179.874 47.555 180.182 48.405 180.182 49.6094C180.182 51.3271 179.488 52.6606 178.071 53.6571L178.068 53.6593C176.649 54.6745 174.828 55.2001 172.571 55.2001C170.75 55.2001 169.203 54.8884 167.913 54.2835C166.622 53.6532 165.645 52.7876 164.964 51.6891C164.307 50.5896 163.971 49.2955 163.971 47.7895V47.2895H163.471H162.062H161.562V47.7895C161.562 49.6774 162 51.3766 162.888 52.8728L162.888 52.8729L162.894 52.8818C163.812 54.356 165.118 55.4945 166.796 56.2995C168.474 57.1049 170.403 57.5 172.571 57.5C174.326 57.5 175.96 57.2188 177.469 56.6509ZM211.5 30.5942V30.0942H211H189.601H189.101V30.5942V31.9684V32.4684H189.601H199.115V56.4429V56.9429H199.615H200.986H201.486V56.4429V32.4684H211H211.5V31.9684V30.5942Z" fill="black" stroke="black"/>
<!--<circle cx="44" cy="16" r="7" fill="black"/>
<circle cx="167" cy="16" r="7" fill="black"/>-->
</svg>
